<svg width="28" height="28" viewBox="0 0 28 28" fill="none" xmlns="http://www.w3.org/2000/svg">
<mask id="mask0_17_14" style="mask-type:luminance" maskUnits="userSpaceOnUse" x="0" y="0" width="28" height="29">
<rect y="0.00012207" width="28" height="28" fill="white"/>
</mask>
<g mask="url(#mask0_17_14)">
<path fill-rule="evenodd" clip-rule="evenodd" d="M19.8694 2.88061C20.034 3.04477 20.1265 3.26767 20.1265 3.50011C20.1265 3.73256 20.034 3.95546 19.8694 4.11961L9.98717 14.0001L19.8694 23.8806C20.2115 24.2227 20.2116 24.7773 19.8695 25.1195C19.5275 25.4617 18.9728 25.4618 18.6306 25.1198L8.13042 14.6196C7.96584 14.4555 7.87335 14.2326 7.87335 14.0001C7.87335 13.7677 7.96584 13.5448 8.13042 13.3806L18.6304 2.88061C18.7946 2.71604 19.0175 2.62355 19.2499 2.62355C19.4824 2.62355 19.7053 2.71604 19.8694 2.88061Z" fill="#757575"/>
</g>
</svg>
