<svg width="15" height="15" viewBox="0 0 15 15" fill="none" xmlns="http://www.w3.org/2000/svg">
<path fill-rule="evenodd" clip-rule="evenodd" d="M3.81086 9.6686C3.70419 9.6686 3.59686 9.6346 3.50619 9.56527C3.28752 9.3966 3.24619 9.0826 3.41486 8.86393L5.41019 6.2706C5.49152 6.1646 5.61219 6.09593 5.74419 6.07927C5.87886 6.06193 6.01086 6.09927 6.11553 6.1826L7.99552 7.65927L9.64019 5.53727C9.80953 5.31793 10.1229 5.27727 10.3415 5.44793C10.5602 5.61727 10.6002 5.93127 10.4309 6.14927L8.47752 8.66927C8.39619 8.7746 8.27619 8.84327 8.14419 8.85927C8.01086 8.87727 7.87886 8.8386 7.77353 8.7566L5.89486 7.2806L4.20752 9.47327C4.10886 9.60127 3.96086 9.6686 3.81086 9.6686Z" fill="#60626E"/>
<mask id="mask0_110_146" style="mask-type:luminance" maskUnits="userSpaceOnUse" x="10" y="0" width="5" height="4">
<path fill-rule="evenodd" clip-rule="evenodd" d="M10.53 0.333401H14.0927V3.89667H10.53V0.333401Z" fill="white"/>
</mask>
<g mask="url(#mask0_110_146)">
<path fill-rule="evenodd" clip-rule="evenodd" d="M12.3114 1.33333C11.8807 1.33333 11.53 1.68333 11.53 2.11467C11.53 2.54533 11.8807 2.89667 12.3114 2.89667C12.742 2.89667 13.0927 2.54533 13.0927 2.11467C13.0927 1.68333 12.742 1.33333 12.3114 1.33333ZM12.3114 3.89667C11.3294 3.89667 10.53 3.09733 10.53 2.11467C10.53 1.132 11.3294 0.333334 12.3114 0.333334C13.294 0.333334 14.0927 1.132 14.0927 2.11467C14.0927 3.09733 13.294 3.89667 12.3114 3.89667Z" fill="#60626E"/>
</g>
<mask id="mask1_110_146" style="mask-type:luminance" maskUnits="userSpaceOnUse" x="0" y="0" width="14" height="15">
<path fill-rule="evenodd" clip-rule="evenodd" d="M0.333252 0.894733H13.5745V14.1354H0.333252V0.894733Z" fill="white"/>
</mask>
<g mask="url(#mask1_110_146)">
<path fill-rule="evenodd" clip-rule="evenodd" d="M9.82192 14.1354H4.08592C1.84125 14.1354 0.333252 12.5587 0.333252 10.2121V4.82407C0.333252 2.47407 1.84125 0.894733 4.08592 0.894733H8.93125C9.20725 0.894733 9.43125 1.11873 9.43125 1.39473C9.43125 1.67073 9.20725 1.89473 8.93125 1.89473H4.08592C2.41392 1.89473 1.33325 3.04407 1.33325 4.82407V10.2121C1.33325 12.0154 2.38792 13.1354 4.08592 13.1354H9.82192C11.4939 13.1354 12.5746 11.9881 12.5746 10.2121V5.5194C12.5746 5.2434 12.7986 5.0194 13.0746 5.0194C13.3506 5.0194 13.5746 5.2434 13.5746 5.5194V10.2121C13.5746 12.5587 12.0666 14.1354 9.82192 14.1354Z" fill="#60626E"/>
</g>
</svg>
